<svg xmlns="http://www.w3.org/2000/svg" xmlns:xlink="http://www.w3.org/1999/xlink" preserveAspectRatio="xMidYMid" width="23" height="22" viewBox="0 0 23 22">
  <defs>
    <style>

      .cls-2 {
        fill: #a5b6be;
      }
    </style>
  </defs>
  <path d="M22.200,15.131 C21.758,15.094 20.836,15.613 20.615,15.762 C19.730,16.244 18.476,16.948 17.665,17.542 C17.591,17.579 17.517,17.616 17.480,17.690 C17.112,17.950 16.743,18.098 16.300,18.209 C13.940,18.729 10.511,18.803 10.511,18.803 C10.511,18.803 10.327,18.803 10.327,18.803 C10.179,18.803 10.032,18.691 10.032,18.543 C9.995,18.358 10.142,18.209 10.290,18.209 C10.290,18.209 15.379,17.690 15.379,17.690 C15.932,17.616 16.374,17.060 16.337,16.466 C16.263,15.836 15.747,15.391 15.157,15.465 C15.157,15.465 10.622,15.391 10.622,15.391 C10.327,15.391 9.810,15.317 9.516,15.205 C6.602,14.278 4.943,15.131 4.058,15.502 C3.874,15.168 3.505,14.946 3.063,14.983 C3.063,14.983 1.108,15.131 1.108,15.131 C0.444,15.168 -0.035,15.762 0.002,16.392 C0.002,16.392 0.297,20.917 0.297,20.917 C0.334,21.584 0.924,22.066 1.551,22.029 C1.551,22.029 3.505,21.881 3.505,21.881 C3.911,21.844 4.242,21.584 4.390,21.213 C4.390,21.213 12.982,21.584 12.982,21.584 C13.940,21.695 14.825,21.584 15.674,21.102 C15.674,21.102 15.932,20.954 15.932,20.954 C15.932,20.954 22.422,16.986 22.422,16.986 C22.753,16.800 22.975,16.466 22.975,16.058 C23.085,15.687 22.827,15.168 22.200,15.131 ZM2.325,20.954 C1.956,20.954 1.661,20.657 1.661,20.286 C1.661,19.915 1.956,19.619 2.325,19.619 C2.694,19.619 2.989,19.915 2.989,20.286 C2.989,20.657 2.694,20.954 2.325,20.954 ZM17.370,16.689 C17.370,16.578 17.370,16.429 17.370,16.318 C17.370,16.170 17.333,16.021 17.259,15.873 C17.259,15.873 17.259,15.836 17.259,15.836 C17.960,15.428 19.287,14.760 20.025,14.464 C20.393,14.315 20.762,14.315 21.094,14.575 C20.836,14.686 20.578,14.797 20.357,14.909 C19.582,15.317 18.218,16.095 17.554,16.578 C17.517,16.578 17.443,16.652 17.370,16.689 ZM16.374,14.686 C16.817,14.427 17.849,14.093 18.292,13.907 C18.660,13.759 18.992,13.759 19.324,13.982 C18.808,14.241 17.775,14.612 17.296,14.872 C17.296,14.872 16.964,15.057 16.964,15.057 C16.927,15.057 16.890,15.094 16.890,15.131 C16.743,14.983 16.558,14.835 16.374,14.686 ZM7.045,10.384 C6.971,10.903 7.340,11.386 7.856,11.423 C7.856,11.423 8.188,11.423 8.188,11.423 C8.557,11.423 8.889,11.682 8.999,12.053 C8.999,12.053 9.110,12.387 9.110,12.387 C9.257,12.906 9.811,13.166 10.290,12.943 C10.290,12.943 10.622,12.795 10.622,12.795 C10.954,12.646 11.359,12.721 11.617,13.017 C11.617,13.017 11.839,13.277 11.839,13.277 C12.207,13.685 12.797,13.648 13.166,13.277 C13.166,13.277 13.387,13.017 13.387,13.017 C13.645,12.721 14.051,12.646 14.383,12.795 C14.383,12.795 14.715,12.943 14.715,12.943 C15.194,13.129 15.747,12.869 15.895,12.350 C15.895,12.350 15.969,12.016 15.969,12.016 C16.079,11.645 16.374,11.386 16.743,11.386 C16.743,11.386 17.075,11.348 17.075,11.348 C17.591,11.311 17.997,10.829 17.886,10.310 C17.886,10.310 17.812,9.939 17.812,9.939 C17.738,9.568 17.923,9.197 18.255,9.012 C18.255,9.012 18.550,8.827 18.550,8.827 C18.992,8.567 19.140,7.974 18.845,7.529 C18.845,7.529 18.660,7.232 18.660,7.232 C18.439,6.935 18.439,6.527 18.660,6.193 C18.660,6.193 18.845,5.897 18.845,5.897 C19.140,5.452 18.992,4.858 18.550,4.599 C18.550,4.599 18.255,4.450 18.255,4.450 C17.923,4.265 17.738,3.894 17.812,3.523 C17.812,3.523 17.886,3.190 17.886,3.190 C17.960,2.670 17.591,2.188 17.075,2.151 C17.075,2.151 16.743,2.151 16.743,2.151 C16.374,2.151 16.042,1.892 15.932,1.521 C15.932,1.521 15.821,1.187 15.821,1.187 C15.674,0.668 15.120,0.408 14.641,0.631 C14.641,0.631 14.309,0.779 14.309,0.779 C13.977,0.927 13.572,0.853 13.314,0.556 C13.314,0.556 13.092,0.297 13.092,0.297 C12.724,-0.111 12.134,-0.074 11.765,0.297 C11.765,0.297 11.544,0.556 11.544,0.556 C11.285,0.853 10.880,0.927 10.548,0.779 C10.548,0.779 10.216,0.631 10.216,0.631 C9.737,0.445 9.184,0.705 9.036,1.224 C9.036,1.224 8.962,1.558 8.962,1.558 C8.852,1.929 8.557,2.188 8.188,2.188 C8.188,2.188 7.856,2.225 7.856,2.225 C7.340,2.262 6.934,2.744 7.045,3.264 C7.045,3.264 7.119,3.597 7.119,3.597 C7.192,3.968 7.008,4.339 6.676,4.525 C6.676,4.525 6.381,4.710 6.381,4.710 C5.939,4.970 5.791,5.563 6.086,6.008 C6.086,6.008 6.271,6.305 6.271,6.305 C6.492,6.601 6.492,7.009 6.271,7.343 C6.271,7.343 6.086,7.640 6.086,7.640 C5.791,8.085 5.939,8.678 6.381,8.938 C6.381,8.938 6.676,9.086 6.676,9.086 C7.008,9.272 7.192,9.642 7.119,10.013 C7.119,10.013 7.045,10.384 7.045,10.384 ZM9.479,5.600 C9.479,5.600 11.359,5.452 11.359,5.452 C11.359,5.452 12.060,3.709 12.060,3.709 C12.207,3.375 12.650,3.375 12.797,3.709 C12.797,3.709 13.498,5.452 13.498,5.452 C13.498,5.452 15.379,5.600 15.379,5.600 C15.747,5.637 15.858,6.082 15.600,6.305 C15.600,6.305 14.162,7.529 14.162,7.529 C14.162,7.529 14.604,9.383 14.604,9.383 C14.678,9.717 14.309,10.013 14.014,9.828 C14.014,9.828 12.429,8.827 12.429,8.827 C12.429,8.827 10.843,9.828 10.843,9.828 C10.548,10.013 10.179,9.754 10.253,9.383 C10.253,9.383 10.695,7.529 10.695,7.529 C10.695,7.529 9.257,6.305 9.257,6.305 C8.962,6.082 9.110,5.637 9.479,5.600 Z" id="path-1" class="cls-2" fill-rule="evenodd"/>
</svg>
