<svg xmlns="http://www.w3.org/2000/svg" xmlns:xlink="http://www.w3.org/1999/xlink" preserveAspectRatio="xMidYMid" width="54" height="44" viewBox="0 0 54 44">
  <defs>
    <style>

      .cls-2 {
        fill: #999999;
      }
    </style>
  </defs>
  <path d="M50.339,3.394 C50.339,3.394 50.339,23.355 50.339,23.355 C50.339,23.355 51.594,23.355 51.594,23.355 C51.594,23.355 51.594,25.015 51.594,25.015 C51.594,25.015 34.328,25.015 34.328,25.015 C34.328,25.015 34.328,35.053 34.328,35.053 C34.328,35.053 41.531,42.319 41.531,42.319 C41.531,42.319 40.368,43.492 40.368,43.492 C40.368,43.492 34.328,37.399 34.328,37.399 C34.328,37.399 34.328,42.632 34.328,42.632 C34.328,42.632 32.681,42.632 32.681,42.632 C32.681,42.632 32.681,37.403 32.681,37.403 C32.681,37.403 26.640,43.494 26.640,43.494 C26.640,43.494 25.476,42.319 25.476,42.319 C25.476,42.319 32.681,35.055 32.681,35.055 C32.681,35.055 32.681,25.015 32.681,25.015 C32.681,25.015 16.671,25.015 16.671,25.015 C16.671,25.015 16.671,23.355 16.671,23.355 C16.671,23.355 18.192,23.355 18.192,23.355 C18.192,23.355 18.192,3.394 18.192,3.394 C18.192,3.394 14.486,3.394 14.486,3.394 C14.486,3.394 14.486,1.735 14.486,1.735 C14.486,1.735 32.369,1.735 32.369,1.735 C32.369,1.735 32.369,-0.000 32.369,-0.000 C32.369,-0.000 34.842,-0.000 34.842,-0.000 C34.842,-0.000 34.842,1.735 34.842,1.735 C34.842,1.735 53.184,1.735 53.184,1.735 C53.184,1.735 53.184,3.394 53.184,3.394 C53.184,3.394 50.339,3.394 50.339,3.394 ZM48.693,3.394 C48.693,3.394 19.839,3.394 19.839,3.394 C19.839,3.394 19.839,23.355 19.839,23.355 C19.839,23.355 48.693,23.355 48.693,23.355 C48.693,23.355 48.693,3.394 48.693,3.394 ZM23.232,16.072 C23.363,16.072 23.491,16.091 23.614,16.119 C23.614,16.119 27.597,12.106 27.597,12.106 C27.543,11.938 27.507,11.763 27.507,11.577 C27.507,10.618 28.280,9.839 29.230,9.839 C30.061,9.839 30.757,10.437 30.917,11.229 C30.917,11.229 34.729,13.151 34.729,13.151 C35.009,12.954 35.347,12.837 35.713,12.837 C35.917,12.837 36.109,12.878 36.290,12.944 C36.290,12.944 38.837,9.129 38.837,9.129 C38.645,8.849 38.531,8.510 38.531,8.144 C38.531,7.186 39.303,6.407 40.253,6.407 C40.989,6.407 41.614,6.877 41.860,7.534 C41.860,7.534 41.878,7.546 41.878,7.546 C41.878,7.546 41.868,7.560 41.868,7.560 C41.933,7.743 41.975,7.938 41.975,8.144 C41.975,8.367 41.929,8.579 41.853,8.776 C41.853,8.776 45.151,12.559 45.151,12.559 C45.206,12.554 45.259,12.542 45.316,12.542 C46.266,12.542 47.038,13.322 47.038,14.279 C47.038,15.237 46.266,16.016 45.316,16.016 C44.366,16.016 43.593,15.237 43.593,14.279 C43.593,13.999 43.666,13.738 43.783,13.503 C43.783,13.503 40.594,9.846 40.594,9.846 C40.507,9.863 40.416,9.869 40.324,9.873 C40.324,9.873 37.403,14.248 37.403,14.248 C37.423,14.354 37.436,14.462 37.436,14.573 C37.436,15.531 36.663,16.310 35.713,16.310 C34.785,16.310 34.031,15.565 33.997,14.637 C33.997,14.637 30.415,12.831 30.415,12.831 C30.106,13.128 29.690,13.314 29.230,13.314 C29.077,13.314 28.932,13.287 28.791,13.250 C28.791,13.250 24.847,17.223 24.847,17.223 C24.912,17.407 24.955,17.603 24.955,17.809 C24.955,18.767 24.181,19.547 23.232,19.547 C22.282,19.547 21.509,18.767 21.509,17.809 C21.509,16.852 22.282,16.072 23.232,16.072 ZM19.062,31.931 C19.062,31.931 19.062,37.997 19.062,37.997 C19.062,39.998 16.297,41.507 12.630,41.507 C9.856,41.507 7.459,40.589 6.573,39.205 C6.521,39.208 6.469,39.209 6.416,39.209 C2.750,39.209 -0.014,37.700 -0.014,35.700 C-0.014,35.700 -0.014,18.210 -0.014,18.210 C-0.014,16.210 2.750,14.701 6.416,14.701 C10.082,14.701 12.847,16.210 12.847,18.210 C12.847,18.210 12.847,28.425 12.847,28.425 C16.405,28.483 19.062,29.971 19.062,31.931 ZM1.355,35.700 C1.355,36.550 3.077,37.772 6.199,37.826 C6.199,37.826 6.199,36.241 6.199,36.241 C4.255,36.208 2.507,35.731 1.355,34.932 C1.355,34.932 1.355,35.700 1.355,35.700 ZM1.355,32.733 C1.355,33.584 3.077,34.805 6.199,34.860 C6.199,34.860 6.199,33.421 6.199,33.421 C4.255,33.389 2.506,32.912 1.355,32.113 C1.355,32.113 1.355,32.733 1.355,32.733 ZM1.355,29.914 C1.355,30.765 3.077,31.986 6.199,32.041 C6.199,32.041 6.199,31.931 6.199,31.931 C6.199,31.470 6.355,31.019 6.656,30.603 C6.576,30.605 6.497,30.606 6.416,30.606 C4.385,30.606 2.548,30.124 1.355,29.296 C1.355,29.296 1.355,29.914 1.355,29.914 ZM6.416,16.083 C3.157,16.083 1.355,17.341 1.355,18.210 C1.355,19.080 3.157,20.339 6.416,20.339 C9.676,20.339 11.479,19.080 11.479,18.210 C11.479,17.341 9.676,16.083 6.416,16.083 ZM11.479,20.408 C11.479,20.408 11.425,20.445 11.425,20.445 C11.287,20.537 11.146,20.623 10.996,20.706 C10.996,20.706 10.922,20.747 10.922,20.747 C10.757,20.835 10.570,20.921 10.378,21.000 C10.378,21.000 10.220,21.063 10.220,21.063 C10.067,21.122 9.914,21.177 9.755,21.228 C9.755,21.228 9.571,21.286 9.571,21.286 C9.369,21.346 9.164,21.400 8.952,21.448 C8.952,21.448 8.888,21.462 8.888,21.462 C8.673,21.510 8.437,21.552 8.195,21.589 C8.195,21.589 7.986,21.615 7.986,21.615 C7.802,21.639 7.615,21.658 7.426,21.674 C7.426,21.674 7.208,21.692 7.208,21.692 C6.679,21.725 6.144,21.725 5.631,21.692 C5.631,21.692 5.408,21.674 5.408,21.674 C5.216,21.658 5.032,21.639 4.847,21.615 C4.847,21.615 4.678,21.594 4.678,21.594 C4.395,21.552 4.159,21.510 3.930,21.459 C3.668,21.400 3.464,21.346 3.266,21.287 C3.266,21.287 3.127,21.244 3.127,21.244 C2.919,21.177 2.766,21.122 2.617,21.064 C2.617,21.064 2.453,21.000 2.453,21.000 C2.262,20.920 2.078,20.835 1.904,20.744 C1.904,20.744 1.854,20.715 1.854,20.715 C1.688,20.624 1.545,20.537 1.411,20.446 C1.392,20.434 1.374,20.422 1.355,20.409 C1.355,20.409 1.355,21.459 1.355,21.459 C1.355,22.330 3.158,23.587 6.417,23.587 C9.676,23.587 11.479,22.330 11.479,21.459 C11.479,21.459 11.479,20.408 11.479,20.408 ZM11.479,23.658 C10.285,24.485 8.448,24.967 6.416,24.967 C4.384,24.967 2.548,24.485 1.355,23.658 C1.355,23.658 1.355,24.277 1.355,24.277 C1.355,25.147 3.157,26.405 6.416,26.405 C9.676,26.405 11.479,25.147 11.479,24.277 C11.479,24.277 11.479,23.658 11.479,23.658 ZM11.479,26.477 C10.285,27.304 8.448,27.786 6.416,27.786 C4.384,27.786 2.548,27.304 1.355,26.477 C1.355,26.477 1.355,27.095 1.355,27.095 C1.355,27.965 3.157,29.223 6.416,29.223 C9.676,29.223 11.479,27.965 11.479,27.095 C11.479,27.095 11.479,26.477 11.479,26.477 ZM12.630,29.804 C9.372,29.804 7.569,31.061 7.569,31.931 C7.569,32.801 9.372,34.059 12.630,34.059 C15.889,34.059 17.692,32.801 17.692,31.931 C17.692,31.061 15.889,29.804 12.630,29.804 ZM17.692,34.128 C17.692,34.128 17.635,34.168 17.635,34.168 C17.502,34.258 17.360,34.344 17.210,34.426 C17.172,34.448 17.152,34.460 17.131,34.469 C16.973,34.556 16.786,34.640 16.594,34.721 C16.594,34.721 16.429,34.785 16.429,34.785 C16.280,34.842 16.126,34.898 15.967,34.949 C15.967,34.949 15.778,35.008 15.778,35.008 C15.581,35.065 15.376,35.122 15.164,35.167 C15.164,35.167 15.101,35.184 15.101,35.184 C14.889,35.231 14.653,35.271 14.412,35.310 C14.412,35.310 14.206,35.336 14.206,35.336 C14.016,35.360 13.829,35.379 13.639,35.395 C13.639,35.395 13.421,35.413 13.421,35.413 C12.895,35.443 12.361,35.443 11.847,35.413 C11.847,35.413 11.622,35.396 11.622,35.396 C11.431,35.379 11.245,35.360 11.061,35.337 C11.061,35.337 10.858,35.311 10.858,35.311 C10.608,35.271 10.372,35.231 10.144,35.181 C10.144,35.181 10.059,35.157 10.059,35.157 C9.884,35.122 9.679,35.067 9.479,35.007 C9.479,35.007 9.299,34.951 9.299,34.951 C9.135,34.898 8.981,34.842 8.832,34.785 C8.832,34.785 8.668,34.720 8.668,34.720 C8.476,34.641 8.290,34.556 8.115,34.462 C8.115,34.462 8.189,34.175 8.189,34.175 C8.189,34.175 8.056,34.428 8.056,34.428 C7.902,34.347 7.758,34.259 7.622,34.164 C7.606,34.154 7.587,34.142 7.569,34.129 C7.569,34.129 7.569,35.178 7.569,35.178 C7.569,36.049 9.372,37.308 12.630,37.308 C15.889,37.308 17.692,36.049 17.692,35.178 C17.692,35.178 17.692,34.128 17.692,34.128 ZM17.693,37.378 C16.499,38.206 14.662,38.689 12.630,38.689 C10.599,38.689 8.763,38.206 7.569,37.378 C7.569,37.378 7.569,37.997 7.569,37.997 C7.569,38.867 9.372,40.126 12.630,40.126 C15.889,40.126 17.692,38.867 17.693,37.997 C17.693,37.997 17.693,37.378 17.693,37.378 Z" id="path-1" class="cls-2" fill-rule="evenodd"/>
</svg>
