<svg xmlns="http://www.w3.org/2000/svg" xmlns:xlink="http://www.w3.org/1999/xlink" preserveAspectRatio="xMidYMid" width="23" height="22" viewBox="0 0 23 22">
  <defs>
    <style>

      .cls-2 {
        fill: #a5b6be;
      }
    </style>
  </defs>
  <path d="M22.955,19.164 C22.852,20.677 21.488,21.969 19.980,21.982 C18.754,21.996 17.532,21.996 16.306,21.996 C16.306,21.996 12.361,21.996 12.361,21.996 C11.995,21.996 11.632,21.993 11.266,21.993 C10.427,21.990 9.589,21.986 8.753,22.000 C8.753,22.000 8.694,22.000 8.694,22.000 C6.992,22.000 5.898,21.805 5.601,20.693 C5.598,20.683 5.598,20.676 5.594,20.666 C5.594,20.666 5.970,20.884 5.970,20.884 C5.970,20.884 6.716,20.451 6.716,20.451 C6.761,20.426 6.795,20.406 6.816,20.388 C6.816,20.388 6.823,20.385 6.823,20.385 C6.851,20.368 6.878,20.347 6.906,20.330 C7.148,21.130 7.852,20.646 8.774,20.646 C8.774,20.646 14.874,20.642 14.874,20.642 C16.472,20.642 18.074,20.642 19.672,20.653 C20.235,20.653 20.739,20.442 21.108,20.061 C21.464,19.697 21.650,19.212 21.637,18.699 C21.616,17.920 21.623,17.131 21.626,16.365 C21.630,16.022 21.633,15.683 21.633,15.344 C21.633,15.344 21.633,5.695 21.633,5.695 C21.630,4.809 21.164,4.120 20.380,3.849 C20.000,3.721 19.628,3.735 19.262,3.742 C19.262,3.742 19.086,3.745 19.086,3.745 C19.086,3.745 19.072,3.572 19.072,3.572 C19.072,3.572 19.072,2.391 19.072,2.391 C19.072,2.391 19.686,2.395 19.686,2.395 C21.599,2.395 22.993,3.787 22.997,5.706 C23.000,9.287 23.000,12.864 22.997,16.445 C22.997,16.445 22.997,17.017 22.997,17.017 C23.000,17.719 23.004,18.450 22.955,19.164 ZM17.925,4.083 C17.925,4.083 10.595,4.083 10.595,4.083 C10.187,4.083 10.063,3.956 10.063,3.536 C10.060,3.209 10.060,2.738 10.063,2.411 C10.067,2.122 10.214,1.982 10.502,1.968 C10.811,1.957 11.126,1.975 11.428,1.916 C11.952,1.809 12.364,1.507 12.635,1.032 C12.727,0.871 12.813,0.706 12.909,0.544 C13.118,0.190 13.430,0.011 13.838,0.004 C14.075,-0.003 14.311,0.007 14.548,0.000 C15.028,-0.010 15.364,0.210 15.604,0.619 C15.786,0.926 15.971,1.245 16.218,1.493 C16.602,1.875 17.099,1.992 17.637,1.974 C18.357,1.954 18.402,2.012 18.402,2.724 C18.402,2.972 18.405,3.360 18.402,3.605 C18.398,3.938 18.258,4.083 17.925,4.083 ZM8.442,3.780 C7.676,3.867 7.165,4.293 6.920,5.041 C6.913,5.065 6.906,5.086 6.899,5.110 C6.450,4.989 5.984,4.958 5.525,5.017 C5.757,3.759 6.682,2.772 7.969,2.471 C8.180,2.423 8.404,2.399 8.643,2.399 C8.643,2.399 9.392,2.392 9.392,2.392 C9.392,2.392 9.392,3.770 9.392,3.770 C9.392,3.770 9.215,3.763 9.215,3.763 C8.929,3.756 8.653,3.753 8.442,3.780 ZM9.682,16.972 C10.749,16.972 12.302,16.972 13.378,16.972 C13.378,17.311 13.378,17.654 13.378,18.015 C12.316,18.015 10.763,18.015 9.682,18.015 C9.682,17.662 9.682,17.325 9.682,16.972 ZM11.625,13.927 C11.625,13.927 14.522,13.927 14.522,13.927 C14.522,13.927 14.522,14.970 14.522,14.970 C14.522,14.970 11.073,14.970 11.073,14.970 C11.273,14.630 11.456,14.284 11.625,13.927 ZM14.522,7.791 C14.522,7.791 14.522,8.833 14.522,8.833 C14.522,8.833 12.968,8.833 12.968,8.833 C12.968,8.809 12.968,8.785 12.972,8.761 C12.996,8.414 12.930,8.085 12.788,7.791 C12.788,7.791 14.522,7.791 14.522,7.791 ZM12.668,10.835 C12.668,10.835 15.450,10.835 15.450,10.835 C15.450,10.835 15.450,11.877 15.450,11.877 C15.450,11.877 12.405,11.877 12.405,11.877 C12.505,11.538 12.592,11.191 12.668,10.835 ZM19.911,18.015 C18.298,18.015 16.693,18.015 15.071,18.015 C15.071,17.675 15.071,17.333 15.071,16.972 C16.677,16.972 18.283,16.972 19.911,16.972 C19.911,17.323 19.911,17.659 19.911,18.015 ZM19.911,14.972 C18.830,14.972 17.277,14.972 16.215,14.972 C16.215,14.611 16.215,14.268 16.215,13.929 C17.291,13.929 18.845,13.929 19.911,13.929 C19.911,14.282 19.911,14.619 19.911,14.972 ZM16.215,7.791 C17.291,7.791 18.845,7.791 19.911,7.791 C19.911,8.144 19.911,8.481 19.911,8.834 C18.830,8.834 17.277,8.834 16.215,8.834 C16.215,8.473 16.215,8.131 16.215,7.791 ZM19.911,11.877 C18.298,11.877 18.764,11.877 17.142,11.877 C17.142,11.538 17.142,11.195 17.142,10.835 C18.748,10.835 18.283,10.835 19.911,10.835 C19.911,11.185 19.911,11.522 19.911,11.877 ZM6.881,6.189 C8.734,6.879 10.876,7.665 11.333,7.803 C11.719,7.920 11.967,8.283 11.938,8.685 C11.930,8.809 11.920,8.927 11.913,9.001 C11.488,13.082 9.528,16.375 6.245,18.523 C6.245,18.523 6.242,18.524 6.242,18.524 C6.233,18.531 6.217,18.542 6.197,18.553 C6.197,18.553 5.971,18.685 5.971,18.685 C5.971,18.685 5.744,18.554 5.744,18.554 C5.724,18.542 5.708,18.531 5.698,18.525 C5.698,18.525 5.695,18.522 5.695,18.522 C2.413,16.375 0.453,13.083 0.029,9.001 C0.021,8.927 0.011,8.809 0.003,8.684 C-0.026,8.283 0.223,7.920 0.607,7.803 C1.065,7.665 3.208,6.879 5.060,6.189 C5.352,6.080 5.659,6.025 5.970,6.025 C6.282,6.025 6.589,6.080 6.881,6.189 ZM0.912,8.663 C0.919,8.761 0.927,8.852 0.932,8.907 C1.318,12.612 3.058,15.616 5.971,17.611 C8.885,15.615 10.624,12.612 11.010,8.907 C11.016,8.852 11.023,8.761 11.030,8.663 C10.346,8.448 7.452,7.373 6.566,7.043 C6.375,6.972 6.174,6.936 5.971,6.936 C5.768,6.936 5.568,6.972 5.377,7.043 C4.491,7.373 1.598,8.447 0.912,8.663 ZM7.000,11.000 C7.000,11.000 9.000,11.000 9.000,11.000 C9.000,11.000 9.000,13.000 9.000,13.000 C9.000,13.000 7.000,13.000 7.000,13.000 C7.000,13.000 7.000,15.000 7.000,15.000 C7.000,15.000 5.000,15.000 5.000,15.000 C5.000,15.000 5.000,13.000 5.000,13.000 C5.000,13.000 3.000,13.000 3.000,13.000 C3.000,13.000 3.000,11.000 3.000,11.000 C3.000,11.000 5.000,11.000 5.000,11.000 C5.000,11.000 5.000,9.000 5.000,9.000 C5.000,9.000 7.000,9.000 7.000,9.000 C7.000,9.000 7.000,11.000 7.000,11.000 Z" id="path-1" class="cls-2" fill-rule="evenodd"/>
</svg>
