<svg xmlns="http://www.w3.org/2000/svg" xmlns:xlink="http://www.w3.org/1999/xlink" preserveAspectRatio="xMidYMid" width="30" height="38" viewBox="0 0 30 38">
  <defs>
    <style>

      .cls-2 {
        stroke: #fa8d4b;
        stroke-width: 1px;
        fill: none;
      }
    </style>
  </defs>
  <path d="M29.488,27.643 C29.488,27.643 29.519,29.814 29.173,30.695 C29.173,30.695 26.902,32.184 22.845,33.212 C22.469,29.179 19.108,26.024 15.017,26.024 C10.924,26.024 7.562,29.182 7.189,33.217 C3.118,32.189 0.840,30.695 0.840,30.695 C0.493,29.814 0.525,27.643 0.525,27.643 C0.416,26.081 0.547,22.925 3.256,22.229 C6.892,21.296 9.908,19.874 9.908,19.874 C10.239,19.414 10.753,18.146 11.074,17.221 C7.423,14.364 8.143,7.628 8.143,7.628 C8.471,0.433 14.431,0.493 15.017,0.517 C15.603,0.494 21.563,0.433 21.890,7.629 C21.890,7.629 22.622,14.472 18.871,17.289 C19.219,18.147 19.726,19.263 19.991,19.719 C20.013,19.730 23.121,21.300 26.744,22.230 C29.455,22.925 29.584,26.085 29.475,27.646 C29.475,27.646 29.488,27.643 29.488,27.643 ZM18.543,33.220 C18.543,33.220 15.755,33.220 15.755,33.220 C15.755,33.220 15.755,30.404 15.755,30.404 C15.755,30.404 14.312,30.404 14.312,30.404 C14.312,30.404 14.312,33.220 14.312,33.220 C14.312,33.220 11.524,33.220 11.524,33.220 C11.524,33.220 11.524,34.709 11.524,34.709 C11.524,34.709 14.312,34.709 14.312,34.709 C14.312,34.709 14.312,37.525 14.312,37.525 C14.312,37.525 15.755,37.525 15.755,37.525 C15.755,37.525 15.755,34.709 15.755,34.709 C15.755,34.709 18.543,34.709 18.543,34.709 C18.543,34.709 18.543,33.220 18.543,33.220 Z" id="path-1" class="cls-2" fill-rule="evenodd"/>
</svg>
