<svg xmlns="http://www.w3.org/2000/svg" xmlns:xlink="http://www.w3.org/1999/xlink" preserveAspectRatio="xMidYMid" width="51" height="37" viewBox="0 0 51 37">
  <defs>
    <style>

      .cls-2 {
        fill: #999999;
      }
    </style>
  </defs>
  <path d="M50.894,23.575 C49.862,25.309 45.681,27.181 40.724,27.181 C35.768,27.181 31.586,25.309 30.554,23.575 C30.420,23.351 30.418,23.072 30.547,22.846 C30.676,22.619 30.916,22.479 31.177,22.479 C31.177,22.479 31.783,22.479 31.783,22.479 C31.783,22.479 39.787,4.343 39.787,4.343 C39.787,4.343 26.222,4.343 26.222,4.343 C26.222,4.343 26.222,33.594 26.222,33.594 C26.222,33.594 31.208,35.588 31.208,35.588 C31.580,35.737 31.761,36.159 31.612,36.531 C31.498,36.815 31.226,36.987 30.938,36.988 C30.848,36.988 30.757,36.971 30.668,36.936 C30.668,36.936 25.496,34.867 25.496,34.867 C25.496,34.867 20.324,36.936 20.324,36.936 C19.952,37.084 19.530,36.903 19.381,36.531 C19.232,36.159 19.413,35.737 19.785,35.588 C19.785,35.588 24.771,33.594 24.771,33.594 C24.771,33.594 24.771,4.343 24.771,4.343 C24.771,4.343 11.205,4.343 11.205,4.343 C11.205,4.343 19.209,22.479 19.209,22.479 C19.209,22.479 19.815,22.479 19.815,22.479 C20.076,22.479 20.317,22.619 20.446,22.846 C20.575,23.072 20.572,23.351 20.439,23.575 C19.406,25.309 15.225,27.181 10.269,27.181 C5.312,27.181 1.131,25.309 0.099,23.575 C-0.035,23.351 -0.037,23.072 0.091,22.846 C0.220,22.619 0.461,22.479 0.722,22.479 C0.722,22.479 1.328,22.479 1.328,22.479 C1.328,22.479 9.571,3.801 9.571,3.801 C9.555,3.741 9.534,3.683 9.534,3.618 C9.534,3.217 9.859,2.892 10.260,2.892 C10.260,2.892 24.771,2.892 24.771,2.892 C24.771,2.892 24.771,0.716 24.771,0.716 C24.771,0.316 25.096,-0.009 25.496,-0.009 C25.897,-0.009 26.222,0.316 26.222,0.716 C26.222,0.716 26.222,2.892 26.222,2.892 C26.222,2.892 40.733,2.892 40.733,2.892 C41.134,2.892 41.458,3.217 41.458,3.618 C41.458,3.683 41.437,3.741 41.421,3.801 C41.421,3.801 49.665,22.479 49.665,22.479 C49.665,22.479 50.271,22.479 50.271,22.479 C50.531,22.479 50.772,22.619 50.901,22.846 C51.030,23.072 51.028,23.351 50.894,23.575 ZM10.269,25.730 C13.609,25.730 16.326,24.828 17.876,23.930 C17.876,23.930 2.661,23.930 2.661,23.930 C4.211,24.828 6.928,25.730 10.269,25.730 ZM2.914,22.479 C2.914,22.479 17.623,22.479 17.623,22.479 C17.623,22.479 10.269,5.815 10.269,5.815 C10.269,5.815 2.914,22.479 2.914,22.479 ZM40.724,25.730 C44.064,25.730 46.782,24.828 48.332,23.930 C48.332,23.930 33.116,23.930 33.116,23.930 C34.667,24.828 37.384,25.730 40.724,25.730 ZM40.724,5.815 C40.724,5.815 33.370,22.479 33.370,22.479 C33.370,22.479 48.079,22.479 48.079,22.479 C48.079,22.479 40.724,5.815 40.724,5.815 Z" id="path-1" class="cls-2" fill-rule="evenodd"/>
</svg>
