<svg xmlns="http://www.w3.org/2000/svg" xmlns:xlink="http://www.w3.org/1999/xlink" preserveAspectRatio="xMidYMid" width="51" height="60" viewBox="0 0 51 60">
  <defs>
    <style>

      .cls-2 {
        fill: #999999;
      }
    </style>
  </defs>
  <path d="M50.246,35.731 C50.246,35.731 50.246,58.138 50.246,58.138 C50.246,58.531 49.919,58.791 49.593,58.791 C49.593,58.791 0.661,58.791 0.661,58.791 C0.269,58.791 0.008,58.466 0.008,58.138 C0.008,58.138 0.008,35.731 0.008,35.731 C0.008,35.339 0.335,35.077 0.661,35.077 C0.661,35.077 3.797,35.077 3.797,35.077 C3.797,35.077 4.647,17.243 4.647,17.243 C4.647,16.916 4.973,16.655 5.300,16.655 C5.300,16.655 9.677,16.655 9.677,16.655 C10.003,16.655 10.330,16.916 10.330,17.243 C10.330,17.243 11.049,32.726 11.049,32.726 C11.049,32.726 11.767,17.243 11.767,17.243 C11.767,16.916 12.094,16.655 12.421,16.655 C12.421,16.655 16.798,16.655 16.798,16.655 C17.124,16.655 17.451,16.916 17.451,17.243 C17.451,17.243 18.235,35.077 18.235,35.077 C18.235,35.077 20.325,35.077 20.325,35.077 C20.325,35.077 20.325,30.831 20.325,30.831 C20.325,30.439 20.652,30.178 20.979,30.178 C20.979,30.178 42.733,30.178 42.733,30.178 C43.125,30.178 43.386,30.505 43.386,30.831 C43.386,30.831 43.386,35.077 43.386,35.077 C43.386,35.077 49.723,35.077 49.723,35.077 C50.115,35.077 50.377,35.404 50.246,35.731 ZM10.787,57.485 C10.787,57.485 15.426,57.485 15.426,57.485 C15.426,57.485 15.426,48.796 15.426,48.796 C15.426,48.796 10.787,48.796 10.787,48.796 C10.787,48.796 10.787,57.485 10.787,57.485 ZM4.908,57.485 C4.908,57.485 9.546,57.485 9.546,57.485 C9.546,57.485 9.546,48.796 9.546,48.796 C9.546,48.796 4.908,48.796 4.908,48.796 C4.908,48.796 4.908,57.485 4.908,57.485 ZM9.154,17.896 C9.154,17.896 6.018,17.896 6.018,17.896 C6.018,17.896 5.169,35.077 5.169,35.077 C5.169,35.077 9.938,35.077 9.938,35.077 C9.938,35.077 9.154,17.896 9.154,17.896 ZM16.210,17.896 C16.210,17.896 13.074,17.896 13.074,17.896 C13.074,17.896 12.225,35.077 12.225,35.077 C12.225,35.077 16.994,35.077 16.994,35.077 C16.994,35.077 16.210,17.896 16.210,17.896 ZM24.115,31.485 C24.115,31.485 21.632,31.485 21.632,31.485 C21.632,31.485 21.632,35.077 21.632,35.077 C21.632,35.077 24.115,35.077 24.115,35.077 C24.115,35.077 24.115,31.485 24.115,31.485 ZM30.125,31.485 C30.125,31.485 25.421,31.485 25.421,31.485 C25.421,31.485 25.421,35.077 25.421,35.077 C25.421,35.077 30.125,35.077 30.125,35.077 C30.125,35.077 30.125,31.485 30.125,31.485 ZM36.135,31.485 C36.135,31.485 31.431,31.485 31.431,31.485 C31.431,31.485 31.431,35.077 31.431,35.077 C31.431,35.077 36.135,35.077 36.135,35.077 C36.135,35.077 36.135,31.485 36.135,31.485 ZM42.145,31.485 C42.145,31.485 37.442,31.485 37.442,31.485 C37.442,31.485 37.442,35.077 37.442,35.077 C37.442,35.077 42.145,35.077 42.145,35.077 C42.145,35.077 42.145,31.485 42.145,31.485 ZM44.628,36.384 C44.628,36.384 1.445,36.384 1.445,36.384 C1.445,36.384 1.445,57.485 1.445,57.485 C1.445,57.485 3.601,57.485 3.601,57.485 C3.601,57.485 3.601,48.209 3.601,48.209 C3.601,47.817 3.928,47.555 4.254,47.555 C4.254,47.555 16.079,47.555 16.079,47.555 C16.471,47.555 16.732,47.817 16.732,48.209 C16.732,48.209 16.732,57.485 16.732,57.485 C16.732,57.485 44.628,57.485 44.628,57.485 C44.628,57.485 44.628,36.384 44.628,36.384 ZM46.914,36.384 C46.914,36.384 45.934,36.384 45.934,36.384 C45.934,36.384 45.934,57.485 45.934,57.485 C45.934,57.485 46.914,57.485 46.914,57.485 C46.914,57.485 46.914,36.384 46.914,36.384 ZM49.135,36.384 C49.135,36.384 48.221,36.384 48.221,36.384 C48.221,36.384 48.221,57.485 48.221,57.485 C48.221,57.485 49.135,57.485 49.135,57.485 C49.135,57.485 49.135,36.384 49.135,36.384 ZM18.953,38.344 C18.953,38.344 40.447,38.344 40.447,38.344 C40.773,38.344 41.100,38.606 41.100,38.997 C41.100,39.324 40.839,39.651 40.447,39.651 C40.447,39.651 18.953,39.651 18.953,39.651 C18.627,39.651 18.300,39.324 18.300,38.997 C18.300,38.671 18.562,38.344 18.953,38.344 ZM20.521,41.545 C20.521,41.545 38.944,41.545 38.944,41.545 C39.271,41.545 39.597,41.872 39.532,42.199 C39.532,42.199 39.532,54.415 39.532,54.415 C39.532,54.741 39.271,55.068 38.879,55.068 C38.879,55.068 20.521,55.068 20.521,55.068 C20.195,55.068 19.868,54.807 19.868,54.415 C19.868,54.415 19.868,42.199 19.868,42.199 C19.868,41.872 20.129,41.545 20.521,41.545 ZM33.457,53.827 C33.457,53.827 38.291,53.827 38.291,53.827 C38.291,53.827 38.291,48.993 38.291,48.993 C38.291,48.993 33.457,48.993 33.457,48.993 C33.457,48.993 33.457,53.827 33.457,53.827 ZM33.457,47.686 C33.457,47.686 38.291,47.686 38.291,47.686 C38.291,47.686 38.291,42.852 38.291,42.852 C38.291,42.852 33.457,42.852 33.457,42.852 C33.457,42.852 33.457,47.686 33.457,47.686 ZM27.316,53.827 C27.316,53.827 32.150,53.827 32.150,53.827 C32.150,53.827 32.150,48.993 32.150,48.993 C32.150,48.993 27.316,48.993 27.316,48.993 C27.316,48.993 27.316,53.827 27.316,53.827 ZM27.316,47.686 C27.316,47.686 32.150,47.686 32.150,47.686 C32.150,47.686 32.150,42.852 32.150,42.852 C32.150,42.852 27.316,42.852 27.316,42.852 C27.316,42.852 27.316,47.686 27.316,47.686 ZM21.175,53.827 C21.175,53.827 26.009,53.827 26.009,53.827 C26.009,53.827 26.009,48.993 26.009,48.993 C26.009,48.993 21.175,48.993 21.175,48.993 C21.175,48.993 21.175,53.827 21.175,53.827 ZM21.175,47.686 C21.175,47.686 26.009,47.686 26.009,47.686 C26.009,47.686 26.009,42.852 26.009,42.852 C26.009,42.852 21.175,42.852 21.175,42.852 C21.175,42.852 21.175,47.686 21.175,47.686 ZM37.311,16.198 C36.527,16.328 35.808,16.263 35.090,16.001 C34.567,17.177 33.457,17.961 32.150,18.157 C31.954,18.223 31.758,18.223 31.562,18.223 C31.431,18.223 31.235,18.223 31.105,18.223 C31.039,18.223 31.039,18.223 31.039,18.223 C30.843,18.223 30.713,18.223 30.582,18.157 C30.517,18.157 30.451,18.092 30.386,18.092 C30.386,18.092 30.321,18.027 30.255,18.027 C29.929,17.896 29.602,17.765 29.341,17.569 C28.622,18.157 27.708,18.550 26.793,18.680 C26.532,18.745 26.270,18.745 26.009,18.745 C24.376,18.745 22.873,17.961 21.828,16.720 C21.697,16.720 21.632,16.785 21.501,16.785 C21.436,16.851 21.436,16.851 21.371,16.851 C21.175,16.916 20.979,16.916 20.783,16.916 C20.195,16.916 19.541,16.720 19.019,16.459 C18.953,16.393 18.953,16.393 18.888,16.393 C18.758,16.328 18.627,16.198 18.496,16.132 C18.431,16.067 18.365,16.067 18.300,16.001 C18.170,15.937 18.039,15.805 17.974,15.740 C17.908,15.675 17.843,15.609 17.778,15.544 C17.647,15.479 17.582,15.414 17.516,15.283 C17.516,15.218 17.451,15.152 17.386,15.087 C17.320,14.957 17.255,14.891 17.190,14.760 C17.124,14.760 17.124,14.695 17.124,14.695 C16.798,14.825 16.406,14.957 16.014,15.021 C14.903,15.218 13.793,14.825 13.009,14.107 C12.486,14.434 11.963,14.695 11.375,14.760 C9.481,15.021 7.782,13.715 7.456,11.821 C7.194,9.991 8.501,8.228 10.330,7.967 C10.265,6.790 10.526,5.614 11.245,4.699 C11.963,3.720 13.009,3.131 14.250,2.935 C15.295,2.740 16.406,3.001 17.320,3.589 C18.300,2.674 19.541,2.087 20.913,1.890 C22.285,1.760 23.657,1.956 24.833,2.544 C25.617,1.629 26.597,0.976 27.708,0.519 C27.708,0.519 27.773,0.454 27.838,0.454 C28.034,0.388 28.230,0.323 28.426,0.258 C28.557,0.258 28.622,0.192 28.753,0.192 C28.949,0.192 29.079,0.126 29.210,0.126 C29.341,0.126 29.406,0.061 29.537,0.061 C29.602,0.061 29.602,0.061 29.602,0.061 C29.929,-0.004 30.321,-0.004 30.647,-0.004 C34.502,-0.004 37.768,2.871 38.421,6.463 C38.487,6.659 38.487,6.855 38.487,7.116 C39.989,7.771 41.100,9.207 41.361,10.840 C41.492,12.081 41.231,13.323 40.447,14.368 C39.663,15.348 38.552,16.001 37.311,16.198 ZM39.989,11.167 C39.859,10.122 39.271,9.207 38.356,8.685 C38.291,9.077 38.226,9.469 38.226,9.469 C38.160,9.795 37.899,9.991 37.572,9.991 C37.507,9.991 37.507,9.991 37.442,9.991 C37.050,9.926 36.854,9.599 36.919,9.273 C36.919,9.273 37.115,8.358 37.115,7.771 C37.115,7.444 37.115,7.116 37.050,6.855 C36.592,3.720 33.848,1.302 30.647,1.302 C30.386,1.302 30.059,1.302 29.733,1.499 C29.537,1.499 29.406,1.564 29.275,1.564 C29.210,1.629 29.145,1.629 29.079,1.629 C28.949,1.629 28.883,1.694 28.753,1.694 C28.557,1.694 28.426,1.760 28.296,1.825 C28.230,1.825 28.165,1.890 28.100,1.890 C27.904,1.956 27.708,2.021 27.512,2.152 C27.446,2.152 27.446,2.152 27.446,2.152 C26.336,2.740 25.421,3.654 24.833,4.831 C24.702,5.026 24.506,5.157 24.245,5.157 C24.180,5.157 24.049,5.157 23.984,5.092 C23.657,4.961 23.592,4.569 23.723,4.242 C23.853,4.046 23.918,3.915 24.049,3.720 C23.135,3.328 22.089,3.197 21.109,3.328 C19.737,3.523 18.562,4.177 17.712,5.222 C17.516,5.484 17.124,5.549 16.863,5.353 C16.732,5.222 16.602,5.026 16.602,4.831 C15.948,4.438 15.230,4.242 14.446,4.373 C12.617,4.634 11.375,6.268 11.637,8.097 C11.702,8.228 11.702,8.358 11.767,8.489 C11.833,8.685 11.767,8.881 11.637,9.077 C11.506,9.273 11.310,9.338 11.114,9.338 C10.918,9.338 10.787,9.338 10.591,9.338 C9.415,9.469 8.632,10.579 8.566,11.821 C8.762,12.931 9.807,13.781 10.983,13.585 C11.506,13.519 11.898,13.258 12.225,12.931 C12.290,12.931 12.290,12.866 12.355,12.866 C12.421,12.800 12.421,12.800 12.486,12.735 C12.813,12.539 13.205,12.605 13.401,12.866 C13.923,13.585 14.838,13.977 15.687,13.845 C16.014,13.781 16.340,13.715 16.602,13.519 C16.602,13.193 16.798,12.931 17.124,12.866 C17.451,12.800 17.778,13.062 17.843,13.389 C17.843,13.519 17.908,13.585 17.908,13.715 C17.974,13.845 17.974,13.911 18.039,14.042 C18.039,14.107 18.104,14.107 18.104,14.172 C18.170,14.303 18.235,14.368 18.300,14.499 C18.300,14.499 18.365,14.564 18.365,14.564 C18.431,14.695 18.562,14.825 18.627,14.891 C18.627,14.891 18.692,14.957 18.692,14.957 C19.280,15.479 19.999,15.740 20.848,15.675 C20.587,15.152 20.456,14.695 20.391,14.172 C20.325,13.845 20.587,13.519 20.913,13.454 C21.240,13.389 21.567,13.650 21.632,13.977 C21.763,14.629 21.959,15.152 22.285,15.675 C22.285,15.740 22.285,15.740 22.285,15.740 C23.200,17.047 24.768,17.700 26.336,17.505 C26.989,17.373 27.642,17.112 28.165,16.720 C28.100,16.655 28.034,16.524 27.969,16.393 C27.773,16.067 27.904,15.675 28.230,15.544 C28.557,15.348 28.949,15.479 29.079,15.805 C29.210,16.001 29.341,16.198 29.537,16.393 C29.602,16.393 29.602,16.459 29.667,16.459 C29.733,16.459 29.733,16.524 29.798,16.524 C30.125,16.720 30.451,16.916 30.778,16.981 C30.843,17.047 30.909,17.047 30.974,17.047 C31.039,17.047 31.039,17.047 31.105,17.047 C31.235,17.047 31.301,17.047 31.431,17.047 C31.497,17.047 31.497,17.047 31.497,17.047 C31.627,17.047 31.758,17.047 31.889,17.047 C32.869,16.916 33.718,16.132 34.044,15.152 C34.110,14.957 34.240,14.825 34.436,14.760 C34.567,14.695 34.763,14.695 34.959,14.760 C35.612,15.087 36.331,15.218 37.050,15.087 C37.964,14.957 38.813,14.434 39.336,13.715 C39.859,12.997 40.120,12.081 39.989,11.167 ZM27.185,12.016 C27.054,12.016 26.924,11.951 26.858,11.951 C26.597,11.755 26.532,11.297 26.728,11.036 C27.512,9.861 27.838,8.489 27.642,7.116 C27.577,6.790 27.838,6.463 28.165,6.398 C28.492,6.333 28.818,6.594 28.883,6.921 C29.145,8.619 28.687,10.317 27.708,11.755 C27.577,11.951 27.381,12.016 27.185,12.016 ZM15.818,11.428 C15.818,11.428 15.752,11.428 15.752,11.428 C15.426,11.428 15.164,11.167 15.164,10.906 C15.099,10.579 15.360,10.253 15.687,10.187 C16.732,9.991 17.647,9.338 18.170,8.423 C18.300,8.097 18.692,7.967 19.019,8.162 C19.346,8.293 19.476,8.685 19.280,9.011 C18.562,10.317 17.255,11.233 15.818,11.428 Z" id="path-1" class="cls-2" fill-rule="evenodd"/>
</svg>
