<svg xmlns="http://www.w3.org/2000/svg" xmlns:xlink="http://www.w3.org/1999/xlink" preserveAspectRatio="xMidYMid" width="26" height="46" viewBox="0 0 26 46">
  <defs>
    <style>

      .cls-2 {
        fill: #999999;
      }
    </style>
  </defs>
  <path d="M22.938,9.475 C22.273,9.475 21.698,9.701 21.244,10.082 C21.244,10.082 21.279,4.382 21.279,4.382 C21.279,2.686 19.899,1.306 18.202,1.306 C17.351,1.306 16.581,1.654 16.024,2.214 C15.648,0.939 14.478,0.000 13.082,0.000 C11.383,0.000 10.001,1.380 10.001,3.076 C10.001,3.076 10.002,4.205 10.002,4.205 C9.459,3.714 8.749,3.406 7.963,3.406 C6.276,3.406 4.904,4.786 4.904,6.478 C4.904,6.478 4.831,19.378 4.831,19.378 C3.595,18.800 1.990,19.320 1.241,19.809 C-0.160,20.723 -0.235,22.863 0.252,28.829 C0.584,32.918 0.978,35.546 1.485,37.060 C1.490,37.082 1.496,37.105 1.503,37.128 C3.330,42.607 7.882,46.011 13.383,46.011 C20.394,46.011 25.885,40.246 25.885,32.890 C25.885,32.890 25.996,12.551 25.996,12.551 C25.996,10.855 24.624,9.475 22.938,9.475 ZM24.842,32.888 C24.842,39.642 19.808,44.934 13.383,44.934 C8.402,44.934 4.268,41.884 2.552,36.960 C2.546,36.929 2.538,36.899 2.527,36.869 C2.030,35.503 1.625,32.844 1.291,28.739 C0.835,23.145 0.954,21.272 1.798,20.721 C2.402,20.326 3.671,19.948 4.478,20.387 C4.964,20.651 5.227,21.213 5.258,22.057 C5.374,25.176 5.259,28.158 5.258,28.188 C5.252,28.339 5.308,28.486 5.413,28.593 C5.517,28.699 5.661,28.759 5.807,28.748 C5.903,28.742 6.705,28.709 7.756,28.891 C7.854,28.947 7.963,28.968 8.075,28.953 C10.244,29.403 13.215,30.799 13.481,35.056 C13.481,35.056 13.481,36.199 13.481,36.199 C13.481,36.202 13.479,36.205 13.479,36.208 C13.479,36.208 13.479,37.690 13.479,37.690 C13.479,37.919 13.619,38.123 13.827,38.198 C13.884,38.219 13.942,38.229 14.001,38.229 C14.155,38.229 14.305,38.158 14.407,38.028 C14.561,37.831 18.195,33.171 19.561,30.890 C19.619,30.808 20.978,28.852 20.937,27.171 C20.885,25.042 19.265,23.375 17.249,23.375 C16.264,23.375 15.338,23.771 14.642,24.491 C14.424,24.716 14.236,24.964 14.082,25.230 C13.437,24.119 12.260,23.375 10.917,23.375 C8.884,23.375 7.229,25.084 7.229,27.185 C7.229,27.380 7.248,27.569 7.277,27.754 C6.900,27.707 6.571,27.684 6.318,27.674 C6.346,26.654 6.388,24.374 6.301,22.016 C6.273,21.279 6.102,20.739 5.869,20.335 C5.869,20.335 5.948,6.481 5.948,6.481 C5.948,5.380 6.852,4.484 7.964,4.484 C9.076,4.484 9.980,5.380 9.980,6.481 C9.980,6.523 9.995,6.561 10.004,6.601 C10.004,6.601 10.013,20.464 10.013,20.464 C10.013,20.761 10.247,21.002 10.535,21.002 C10.535,21.002 10.535,21.002 10.535,21.002 C10.823,21.002 11.056,20.761 11.056,20.463 C11.056,20.463 11.045,3.075 11.045,3.075 C11.045,1.973 11.958,1.077 13.082,1.077 C14.205,1.077 15.118,1.973 15.118,3.079 C15.118,3.079 15.127,4.291 15.127,4.291 C15.127,4.301 15.132,4.310 15.133,4.320 C15.133,4.339 15.127,4.358 15.127,4.378 C15.127,4.378 15.028,20.093 15.028,20.093 C15.026,20.390 15.258,20.633 15.546,20.635 C15.844,20.616 16.069,20.398 16.071,20.100 C16.071,20.100 16.170,4.382 16.170,4.382 C16.170,3.280 17.081,2.384 18.202,2.384 C19.323,2.384 20.235,3.280 20.235,4.378 C20.235,4.378 20.130,21.559 20.130,21.559 C20.128,21.856 20.360,22.099 20.648,22.101 C20.649,22.101 20.650,22.101 20.651,22.101 C20.938,22.101 21.171,21.862 21.172,21.566 C21.172,21.566 21.228,12.651 21.228,12.651 C21.234,12.618 21.247,12.586 21.247,12.550 C21.247,11.629 21.690,10.553 22.937,10.553 C24.048,10.553 24.952,11.449 24.952,12.547 C24.952,12.547 24.842,32.888 24.842,32.888 ZM8.273,27.185 C8.273,25.678 9.459,24.453 10.917,24.453 C11.624,24.453 12.288,24.737 12.787,25.253 C13.287,25.769 13.562,26.455 13.562,27.185 C13.562,27.185 13.562,27.185 13.562,27.185 C13.562,27.482 13.796,27.724 14.084,27.724 C14.372,27.724 14.605,27.482 14.605,27.185 C14.605,27.171 14.605,27.156 14.605,27.141 C14.627,25.655 15.805,24.453 17.249,24.453 C18.695,24.453 19.857,25.659 19.894,27.198 C19.921,28.289 19.053,29.777 18.695,30.290 C17.766,31.841 15.724,34.572 14.524,36.145 C14.524,36.145 14.523,35.021 14.523,35.021 C14.221,30.168 10.871,28.511 8.401,27.951 C8.323,27.700 8.273,27.457 8.273,27.185 Z" id="path-1" class="cls-2" fill-rule="evenodd"/>
</svg>
