<svg xmlns="http://www.w3.org/2000/svg" xmlns:xlink="http://www.w3.org/1999/xlink" preserveAspectRatio="xMidYMid" width="20" height="20" viewBox="0 0 20 20">
  <defs>
    <style>

      .cls-2 {
        fill: #a5b6be;
      }
    </style>
  </defs>
  <path d="M10.000,0.000 C4.485,0.000 0.000,4.485 0.000,10.000 C0.000,15.515 4.485,20.000 10.000,20.000 C15.515,20.000 20.000,15.515 20.000,10.000 C20.000,4.485 15.515,0.000 10.000,0.000 ZM10.000,9.003 C11.653,9.003 13.003,10.347 13.003,12.005 C13.003,13.307 12.165,14.405 11.003,14.821 C11.003,14.821 11.003,16.005 11.003,16.005 C11.003,16.005 9.003,16.005 9.003,16.005 C9.003,16.005 9.003,14.821 9.003,14.821 C7.840,14.405 7.003,13.307 7.003,12.005 C7.003,12.005 9.003,12.005 9.003,12.005 C9.003,12.555 9.451,13.008 10.005,13.008 C10.560,13.008 11.008,12.560 11.008,12.005 C11.008,11.451 10.560,11.003 10.005,11.003 C8.352,11.003 7.003,9.659 7.003,8.000 C7.003,6.699 7.840,5.600 9.003,5.184 C9.003,5.184 9.003,4.000 9.003,4.000 C9.003,4.000 11.003,4.000 11.003,4.000 C11.003,4.000 11.003,5.184 11.003,5.184 C12.165,5.600 13.003,6.699 13.003,8.000 C13.003,8.000 11.003,8.000 11.003,8.000 C11.003,7.451 10.555,6.997 10.000,6.997 C9.445,6.997 8.997,7.445 8.997,8.000 C8.997,8.555 9.451,9.003 10.000,9.003 Z" id="path-1" class="cls-2" fill-rule="evenodd"/>
</svg>
