<svg xmlns="http://www.w3.org/2000/svg" xmlns:xlink="http://www.w3.org/1999/xlink" preserveAspectRatio="xMidYMid" width="127" height="61" viewBox="0 0 127 61">
  <defs>
    <style>

      .cls-2 {
        fill: #464646;
      }
    </style>
  </defs>
  <path d="M123.437,42.551 C123.437,42.551 123.437,50.589 123.437,50.589 C123.437,50.589 122.833,50.589 122.833,50.589 C122.833,50.589 122.833,42.551 122.833,42.551 C122.833,42.551 120.047,42.551 120.047,42.551 C120.047,42.551 120.047,41.986 120.047,41.986 C120.047,41.986 126.223,41.986 126.223,41.986 C126.223,41.986 126.223,42.551 126.223,42.551 C126.223,42.551 123.437,42.551 123.437,42.551 ZM120.850,27.307 C120.850,27.307 114.126,27.307 114.126,27.307 C114.126,27.307 111.720,37.379 111.720,37.379 C111.720,37.379 109.788,37.379 109.788,37.379 C109.788,37.379 116.456,9.594 116.456,9.594 C116.456,9.594 118.369,9.594 118.369,9.594 C118.369,9.594 125.188,37.379 125.188,37.379 C125.188,37.379 123.294,37.379 123.294,37.379 C123.294,37.379 120.850,27.307 120.850,27.307 ZM117.971,15.067 C117.718,13.902 117.523,12.799 117.384,11.760 C117.270,12.863 117.093,13.965 116.853,15.067 C116.853,15.067 114.486,25.425 114.486,25.425 C114.486,25.425 120.414,25.425 120.414,25.425 C120.414,25.425 117.971,15.067 117.971,15.067 ZM100.734,25.900 C100.734,25.900 98.764,25.900 98.764,25.900 C98.764,25.900 98.764,37.379 98.764,37.379 C98.764,37.379 96.908,37.379 96.908,37.379 C96.908,37.379 96.908,9.594 96.908,9.594 C96.908,9.594 100.696,9.594 100.696,9.594 C103.398,9.594 105.375,10.234 106.625,11.513 C107.875,12.793 108.500,14.814 108.500,17.576 C108.500,20.440 107.847,22.543 106.540,23.886 C105.233,25.229 103.297,25.900 100.734,25.900 ZM105.195,12.758 C104.254,11.789 102.799,11.304 100.829,11.304 C100.829,11.304 98.764,11.304 98.764,11.304 C98.764,11.304 98.764,24.190 98.764,24.190 C98.764,24.190 100.620,24.190 100.620,24.190 C102.792,24.190 104.333,23.677 105.242,22.650 C106.151,21.624 106.606,19.933 106.606,17.576 C106.606,15.333 106.135,13.727 105.195,12.758 ZM100.827,50.589 C100.827,50.589 96.141,50.589 96.141,50.589 C96.141,50.589 96.141,41.986 96.141,41.986 C96.141,41.986 96.739,41.986 96.739,41.986 C96.739,41.986 96.739,50.024 96.739,50.024 C96.739,50.024 100.827,50.024 100.827,50.024 C100.827,50.024 100.827,50.589 100.827,50.589 ZM91.038,47.035 C91.038,47.035 89.712,47.035 89.712,47.035 C89.712,47.035 89.712,50.589 89.712,50.589 C89.712,50.589 89.114,50.589 89.114,50.589 C89.114,50.589 89.114,41.986 89.114,41.986 C89.114,41.986 91.214,41.986 91.214,41.986 C93.255,41.986 94.275,42.810 94.275,44.457 C94.275,45.289 93.994,45.927 93.431,46.370 C92.868,46.813 92.070,47.035 91.038,47.035 ZM93.020,43.007 C92.614,42.687 91.984,42.527 91.132,42.527 C91.132,42.527 89.712,42.527 89.712,42.527 C89.712,42.527 89.712,46.517 89.712,46.517 C89.712,46.517 90.891,46.517 90.891,46.517 C91.857,46.517 92.555,46.357 92.985,46.037 C93.415,45.718 93.630,45.199 93.630,44.481 C93.630,43.818 93.427,43.327 93.020,43.007 ZM82.985,37.379 C82.985,37.379 78.060,37.379 78.060,37.379 C78.060,37.379 78.060,9.594 78.060,9.594 C78.060,9.594 83.099,9.594 83.099,9.594 C85.953,9.594 88.115,10.750 89.587,13.062 C91.058,15.375 91.793,18.761 91.793,23.221 C91.793,32.660 88.857,37.379 82.985,37.379 ZM89.842,23.335 C89.842,19.419 89.267,16.436 88.119,14.383 C86.969,12.331 85.271,11.304 83.023,11.304 C83.023,11.304 79.917,11.304 79.917,11.304 C79.917,11.304 79.917,35.669 79.917,35.669 C79.917,35.669 82.872,35.669 82.872,35.669 C85.271,35.669 87.032,34.617 88.156,32.514 C89.280,30.411 89.842,27.351 89.842,23.335 ZM72.944,50.707 C71.751,50.707 70.815,50.310 70.135,49.515 C69.454,48.721 69.114,47.637 69.114,46.264 C69.114,44.895 69.457,43.817 70.143,43.030 C70.830,42.244 71.767,41.850 72.956,41.850 C74.152,41.850 75.089,42.246 75.765,43.036 C76.442,43.827 76.780,44.907 76.780,46.276 C76.780,47.641 76.440,48.721 75.759,49.515 C75.079,50.310 74.140,50.707 72.944,50.707 ZM75.311,43.425 C74.765,42.764 73.980,42.433 72.956,42.433 C71.935,42.433 71.148,42.767 70.595,43.433 C70.042,44.100 69.765,45.048 69.765,46.276 C69.765,47.508 70.039,48.460 70.586,49.133 C71.134,49.806 71.920,50.142 72.944,50.142 C73.976,50.142 74.765,49.809 75.311,49.142 C75.856,48.475 76.129,47.519 76.129,46.276 C76.129,45.036 75.856,44.086 75.311,43.425 ZM65.975,25.900 C65.975,25.900 64.005,25.900 64.005,25.900 C64.005,25.900 64.005,37.379 64.005,37.379 C64.005,37.379 62.149,37.379 62.149,37.379 C62.149,37.379 62.149,9.594 62.149,9.594 C62.149,9.594 65.938,9.594 65.938,9.594 C68.640,9.594 70.616,10.234 71.866,11.513 C73.117,12.793 73.742,14.814 73.742,17.576 C73.742,20.440 73.088,22.543 71.781,23.886 C70.474,25.229 68.539,25.900 65.975,25.900 ZM70.436,12.758 C69.495,11.789 68.040,11.304 66.070,11.304 C66.070,11.304 64.005,11.304 64.005,11.304 C64.005,11.304 64.005,24.190 64.005,24.190 C64.005,24.190 65.862,24.190 65.862,24.190 C68.034,24.190 69.574,23.677 70.484,22.650 C71.393,21.624 71.847,19.933 71.847,17.576 C71.847,15.333 71.377,13.727 70.436,12.758 ZM63.574,42.407 C64.194,42.044 64.915,41.862 65.736,41.862 C66.572,41.862 67.321,42.019 67.982,42.333 C67.982,42.333 67.742,42.874 67.742,42.874 C67.116,42.561 66.459,42.404 65.771,42.404 C64.696,42.404 63.849,42.749 63.231,43.439 C62.613,44.130 62.305,45.075 62.305,46.276 C62.305,47.504 62.596,48.457 63.179,49.136 C63.761,49.815 64.594,50.154 65.677,50.154 C66.397,50.154 67.057,50.062 67.660,49.877 C67.660,49.877 67.660,50.407 67.660,50.407 C67.093,50.607 66.385,50.707 65.536,50.707 C64.332,50.707 63.384,50.317 62.692,49.536 C62.000,48.755 61.654,47.665 61.654,46.264 C61.654,45.389 61.819,44.618 62.149,43.951 C62.480,43.284 62.955,42.770 63.574,42.407 ZM32.125,60.550 C25.398,60.550 19.858,55.350 19.242,48.729 C19.242,48.729 4.293,48.729 4.293,48.729 C1.926,48.729 -0.000,46.788 -0.000,44.402 C-0.000,44.402 -0.000,44.394 -0.000,44.394 C-0.000,44.393 -0.000,44.392 -0.000,44.392 C-0.000,44.392 -0.000,24.204 -0.000,24.204 C-0.000,23.527 0.544,22.978 1.216,22.978 C1.216,22.978 27.689,22.978 27.689,22.978 C27.689,22.978 27.689,13.146 27.689,13.146 C27.689,7.249 22.929,2.453 17.079,2.453 C11.230,2.453 6.470,7.250 6.470,13.146 C6.470,13.146 6.470,17.689 6.470,17.689 C6.470,18.367 5.926,18.915 5.254,18.915 C4.582,18.915 4.037,18.367 4.037,17.689 C4.037,17.689 4.037,13.146 4.037,13.146 C4.037,5.897 9.888,-0.000 17.079,-0.000 C24.271,-0.000 30.122,5.897 30.122,13.146 C30.122,13.146 30.122,22.978 30.122,22.978 C30.122,22.978 32.943,22.978 32.943,22.978 C33.615,22.978 34.160,23.527 34.160,24.204 C34.160,24.204 34.160,34.636 34.160,34.636 C37.092,35.109 39.805,36.571 41.805,38.839 C43.911,41.228 45.071,44.305 45.070,47.502 C45.070,47.929 45.049,48.359 45.009,48.782 C44.360,55.491 38.821,60.550 32.125,60.550 ZM31.727,25.431 C31.727,25.431 2.433,25.431 2.433,25.431 C2.433,25.431 2.433,36.704 2.433,36.704 C2.433,36.705 2.433,36.705 2.433,36.705 C2.433,36.705 2.433,44.402 2.433,44.402 C2.433,45.436 3.267,46.277 4.293,46.277 C4.293,46.277 19.243,46.277 19.243,46.277 C19.846,39.789 25.182,34.678 31.727,34.476 C31.727,34.476 31.727,25.431 31.727,25.431 ZM39.986,40.468 C37.991,38.206 35.126,36.908 32.126,36.908 C26.330,36.908 21.614,41.661 21.614,47.503 C21.614,53.345 26.330,58.099 32.126,58.099 C37.564,58.099 42.062,53.991 42.588,48.544 C42.621,48.201 42.637,47.851 42.638,47.503 C42.638,44.906 41.696,42.408 39.986,40.468 ZM30.716,52.919 C30.479,53.158 30.167,53.278 29.856,53.278 C29.545,53.278 29.234,53.158 28.996,52.919 C28.996,52.919 25.661,49.557 25.661,49.557 C25.186,49.079 25.186,48.302 25.661,47.823 C26.137,47.344 26.907,47.344 27.382,47.823 C27.382,47.823 29.856,50.317 29.856,50.317 C29.856,50.317 36.871,43.247 36.871,43.247 C37.346,42.769 38.115,42.769 38.591,43.247 C39.066,43.726 39.066,44.503 38.591,44.982 C38.591,44.982 30.716,52.919 30.716,52.919 ZM82.715,49.554 C82.715,49.554 82.750,49.554 82.750,49.554 C82.750,49.554 85.789,41.986 85.789,41.986 C85.789,41.986 86.692,41.986 86.692,41.986 C86.692,41.986 86.692,50.589 86.692,50.589 C86.692,50.589 86.088,50.589 86.088,50.589 C86.088,50.589 86.088,44.069 86.088,44.069 C86.088,43.614 86.111,43.143 86.158,42.657 C86.158,42.657 86.111,42.657 86.111,42.657 C86.111,42.657 82.903,50.589 82.903,50.589 C82.903,50.589 82.522,50.589 82.522,50.589 C82.522,50.589 79.325,42.645 79.325,42.645 C79.325,42.645 79.278,42.645 79.278,42.645 C79.310,43.131 79.325,43.630 79.325,44.140 C79.325,44.140 79.325,50.589 79.325,50.589 C79.325,50.589 78.750,50.589 78.750,50.589 C78.750,50.589 78.750,41.986 78.750,41.986 C78.750,41.986 79.677,41.986 79.677,41.986 C79.677,41.986 82.715,49.554 82.715,49.554 ZM102.903,50.589 C102.903,50.589 102.305,50.589 102.305,50.589 C102.305,50.589 102.305,41.986 102.305,41.986 C102.305,41.986 102.903,41.986 102.903,41.986 C102.903,41.986 102.903,50.589 102.903,50.589 ZM107.947,41.951 C107.947,41.951 111.325,50.589 111.325,50.589 C111.325,50.589 110.651,50.589 110.651,50.589 C110.651,50.589 109.460,47.553 109.460,47.553 C109.460,47.553 105.976,47.553 105.976,47.553 C105.976,47.553 104.780,50.589 104.780,50.589 C104.780,50.589 104.117,50.589 104.117,50.589 C104.117,50.589 107.566,41.951 107.566,41.951 C107.566,41.951 107.947,41.951 107.947,41.951 ZM106.193,47.011 C106.193,47.011 109.261,47.011 109.261,47.011 C109.261,47.011 108.094,43.910 108.094,43.910 C107.996,43.667 107.879,43.330 107.742,42.898 C107.636,43.275 107.521,43.616 107.396,43.922 C107.396,43.922 106.193,47.011 106.193,47.011 ZM118.211,49.612 C118.211,49.612 118.246,49.612 118.246,49.612 C118.211,48.906 118.193,48.235 118.193,47.600 C118.193,47.600 118.193,41.986 118.193,41.986 C118.193,41.986 118.774,41.986 118.774,41.986 C118.774,41.986 118.774,50.589 118.774,50.589 C118.774,50.589 118.170,50.589 118.170,50.589 C118.170,50.589 113.091,42.951 113.091,42.951 C113.091,42.951 113.044,42.951 113.044,42.951 C113.091,43.861 113.114,44.548 113.114,45.011 C113.114,45.011 113.114,50.589 113.114,50.589 C113.114,50.589 112.539,50.589 112.539,50.589 C112.539,50.589 112.539,41.986 112.539,41.986 C112.539,41.986 113.138,41.986 113.138,41.986 C113.138,41.986 118.211,49.612 118.211,49.612 Z" id="path-1" class="cls-2" fill-rule="evenodd"/>
</svg>
