<svg xmlns="http://www.w3.org/2000/svg" xmlns:xlink="http://www.w3.org/1999/xlink" preserveAspectRatio="xMidYMid" width="28" height="49" viewBox="0 0 28 49">
  <defs>
    <style>

      .cls-2 {
        fill: #999999;
      }
    </style>
  </defs>
  <path d="M19.094,31.642 C18.542,33.489 16.394,34.905 13.817,34.905 C11.240,34.905 9.030,33.489 8.478,31.581 C8.478,31.581 0.010,33.243 0.010,33.243 C0.010,33.243 0.010,32.504 0.010,32.504 C0.010,28.318 1.237,25.302 3.815,22.778 C2.894,10.837 8.171,3.328 13.510,0.189 C13.510,0.189 13.817,0.004 13.817,0.004 C13.817,0.004 14.124,0.189 14.124,0.189 C19.401,3.266 24.678,10.837 23.819,22.778 C26.458,25.302 27.624,28.318 27.624,32.566 C27.624,32.566 27.624,33.304 27.624,33.304 C27.624,33.304 19.094,31.642 19.094,31.642 ZM22.899,23.579 C22.837,23.517 22.714,23.394 22.653,23.333 C22.653,23.333 22.592,23.333 22.592,23.333 C23.880,12.438 18.603,4.005 13.817,1.420 C8.908,4.497 4.060,11.699 5.103,23.086 C5.103,23.086 5.103,23.209 5.103,23.209 C2.587,25.426 1.421,28.072 1.237,31.704 C1.237,31.704 9.215,30.103 9.215,30.103 C9.215,30.165 10.135,33.612 13.817,33.674 C17.376,33.674 18.419,30.226 18.419,30.226 C18.419,30.226 26.396,31.827 26.396,31.827 C26.274,28.257 25.169,25.733 22.899,23.579 ZM16.701,18.839 C15.903,19.516 14.860,19.947 13.817,19.947 C12.651,19.947 11.485,19.455 10.687,18.593 C9.092,16.870 9.215,14.161 10.933,12.561 C11.730,11.822 12.774,11.453 13.817,11.453 C14.983,11.453 16.149,11.945 16.946,12.807 C17.744,13.669 18.112,14.715 18.051,15.885 C17.990,17.054 17.499,18.100 16.701,18.839 ZM16.026,13.546 C15.474,12.930 14.615,12.561 13.817,12.561 C13.080,12.561 12.344,12.869 11.730,13.361 C10.503,14.530 10.442,16.439 11.546,17.670 C12.099,18.285 12.958,18.654 13.755,18.654 C14.492,18.654 15.228,18.347 15.842,17.854 C16.455,17.300 16.762,16.562 16.824,15.761 C16.885,14.961 16.578,14.161 16.026,13.546 ZM13.755,46.292 C13.755,46.292 13.265,45.553 13.265,45.553 C13.019,45.184 10.994,42.106 10.994,40.137 C10.994,38.290 12.283,36.751 13.817,36.751 C15.351,36.751 16.640,38.290 16.640,40.137 C16.640,42.291 14.430,45.430 14.308,45.553 C14.308,45.553 13.755,46.292 13.755,46.292 ZM15.412,40.137 C15.351,38.967 14.676,37.982 13.817,37.982 C12.958,37.982 12.221,38.967 12.221,40.137 C12.221,41.183 13.142,42.968 13.817,44.076 C14.492,42.968 15.412,41.245 15.412,40.137 ZM21.365,49.000 C21.365,49.000 6.208,49.000 6.208,49.000 C6.208,49.000 6.208,47.769 6.208,47.769 C6.208,47.769 21.365,47.769 21.365,47.769 C21.365,47.769 21.365,49.000 21.365,49.000 Z" id="path-1" class="cls-2" fill-rule="evenodd"/>
</svg>
