<svg id="Layer_3" data-name="Layer 3" xmlns="http://www.w3.org/2000/svg" viewBox="0 0 272.25 53.06"><defs><style>.cls-1{fill:none}.cls-2{fill:#f9bb18}.cls-3{fill:#231f20}</style></defs><title>slide_block01</title><path d="M85.49 42.45l7.94-21.68 2.6 21.68h8.39l-4.55-31.84H89.63l-6.78 19.13-6.78-19.13H65.83l-4.55 31.84h8.4l2.59-21.68 7.95 21.68h5.27zM129.59 18.78l10.79 23.67-4.27 9.29h9.29l14.84-32.96h-9.59l-5.7 16.56-5.77-16.56h-9.59zM272.25 42.43l-9.81-12.66 8.94-10.99h-9.99l-7.94 10.34V7.99h-8.7v34.44h8.7V30.44l8.91 11.99h9.89z"/><path class="cls-1" d="M10410.2 5679.67v12.46c1.6.43 8.14 1.7 8.14-6.55 0-8.1-6.34-6.51-8.14-5.91z" transform="translate(-10239.72 -5655.16)"/><path d="M10401.36 5696.4a34.58 34.58 0 0 0 11 1.72c6.44 0 14.84-2 14.84-13.09s-11.14-11.49-12.44-11.49a10.18 10.18 0 0 0-4.6 1v-11.4h-8.84v33.3zm8.84-4.27v-12.46c1.76-.59 8.14-2.19 8.14 5.91 0 8.24-6.54 6.98-8.14 6.54z" transform="translate(-10239.72 -5655.16)"/><path class="cls-1" d="M10444.67 5686.67c-1.77 0-8.24.24-8.24 3.65 0 3.16 6.39 2.63 8.24 2.41v-6.06z" transform="translate(-10239.72 -5655.16)"/><path d="M10432 5679.93c12.69-3.75 12.69.75 12.69 1.35v.8c-10.27.08-16.38 3-16.38 8.34s5.69 7.74 13.24 7.74 11.39-1.75 11.39-1.75v-14.74c0-5.19-3.35-8.49-11.39-8.49s-11.54 1.9-11.54 1.9zm4.45 10.39c0-3.41 6.47-3.65 8.24-3.65v6.06c-1.87.27-8.27.75-8.27-2.41z" transform="translate(-10239.72 -5655.16)"/><path class="cls-1" d="M10361.65 5686.67c-1.77 0-8.24.24-8.24 3.65 0 3.16 6.39 2.63 8.24 2.41v-6.06z" transform="translate(-10239.72 -5655.16)"/><path d="M10349 5679.93c12.69-3.75 12.69.75 12.69 1.35v.8c-10.27.08-16.38 3-16.38 8.34s5.69 7.74 13.24 7.74 11.39-1.75 11.39-1.75v-14.74c0-5.19-3.35-8.49-11.39-8.49s-11.54 1.9-11.54 1.9zm4.45 10.39c0-3.41 6.47-3.65 8.24-3.65v6.06c-1.89.27-8.28.75-8.28-2.41zM10472.44 5697.57h8.74v-15c0-7.79-5.59-9.44-12.49-9.44a42.65 42.65 0 0 0-12.44 1.9v22.53h8.74v-17.92c6.72-2 7.44 1.27 7.44 2.83v15.08z" transform="translate(-10239.72 -5655.16)"/><circle class="cls-2" cx="26.53" cy="26.53" r="24.31"/><path class="cls-3" d="M10266.25 5657.38a24.31 24.31 0 1 1-24.31 24.31 24.31 24.31 0 0 1 24.31-24.31m0-2.22a26.53 26.53 0 1 0 26.53 26.53 26.56 26.56 0 0 0-26.53-26.53z" transform="translate(-10239.72 -5655.16)"/><path class="cls-1" d="M10248.06 5681.28a5.08 5.08 0 0 0 .82-.8.69.69 0 0 0-.77-.15c-.35.1-1.5.65-1.32.95s1.2 1.82 1.77 1.82.42-.6.22-.85a2.61 2.61 0 0 1-.72-.97zM10260.85 5672.64a2.24 2.24 0 0 1 .82-.85s-.89-.05-1.28 0a.58.58 0 0 1 .2.44.59.59 0 0 1-.59.59.57.57 0 0 1-.15 0 .62.62 0 0 0 1-.18zM10254.53 5687.13a3 3 0 0 0-.82.47 4.63 4.63 0 0 1-.45.3 4.33 4.33 0 0 0 1.37 1.45 8.59 8.59 0 0 1-.1-2.22zM10263.22 5688.07c0-.47-1.5-.62-1.5-.62a9.13 9.13 0 0 1 .37 1.57 2.66 2.66 0 0 1-1.22.15 4.71 4.71 0 0 1-.27 1.35c1.8-.77 2.64-1.97 2.62-2.45zM10256.49 5691.77a2.89 2.89 0 0 0 .64 1.35c.34.11.37-.49.84-.94a3 3 0 0 1-1.48-.41z" transform="translate(-10239.72 -5655.16)"/><path d="M10254.83 5672.4a7.3 7.3 0 0 1 1.46-3 29.59 29.59 0 0 1 8.8-4.38 2.29 2.29 0 0 1 1.23 0l-.06.35a1.08 1.08 0 0 1-.32.57 1.58 1.58 0 0 0 1.75-1.32c.17-.77.77-3.84 1.75-3.8 2.72.12 4.67 8.92 4.47 9.32a1.91 1.91 0 0 1-1.2.05c1.7 2.67 3.92 2.65 4.42 2.22s.22-1.8.22-1.8c5.34 3.17 5 6.94 5 6.94 1.6-6.24-2.1-8.92-2.1-8.92a6.64 6.64 0 0 1 3 .87c-2.25-3-6.89-4.7-6.89-4.7s-5.42-6-7.17-5.79c-1.45.19-2.28 2.84-2.68 4.66a5.34 5.34 0 0 0-1.07 0c-.38-.48-2-2.4-2.64-1.77a8.69 8.69 0 0 0-.34 2.71c-2.63 1-7.09 3-8 4.45a7.43 7.43 0 0 0-1 2.29s-5.36 3.45-6.67 7.19a28 28 0 0 1 8.04-6.14z" transform="translate(-10239.72 -5655.16)"/><path d="M10272.06 5669.62c-.07-2.77-1.45-5-2.15-5.12s-.92 2.52-.92 2.52a17.41 17.41 0 0 1 3.07 2.6zM10258.9 5669.12c-1.07.65-.6 1.2-.6 1.2s-.17-.55 1.15-.92c2.36-.67 4.5-1.35 4.45-1.92s-1.65-.8-1.65-.8c.44.59-2.25 1.79-3.35 2.44z" transform="translate(-10239.72 -5655.16)"/><path d="M10258.12 5675.46a4.87 4.87 0 0 1 1.17-1.77 3 3 0 0 0 1.35 0c.47-.17 1.37-1.37 1.72-1.4 0 0-.92 4-4.67 3.95 0 0 2.7 1.52 4.07.45s.32-1.9 2.1-3.62.6-1.8.52-1.77a3.27 3.27 0 0 1-.62-.15 2.08 2.08 0 0 1 .75-.55c.5-.22 3.37-1.52 3.42-2.3s-2.07-1.65-3.15-1.62a1.42 1.42 0 0 1 .92.95c0 .55-2.85 1.77-2.85 3.35a7.57 7.57 0 0 1-1.72-.07 2.93 2.93 0 0 0-2.3.45c-.8.52-.85-.65-.77-.8s-1.55 1 .4 2.22a8.23 8.23 0 0 0-.87 1 1.21 1.21 0 0 0 .53 1.68zm1.89-2.67a.59.59 0 0 0 .59-.59.58.58 0 0 0-.2-.44h1.28a2.24 2.24 0 0 0-.82.85.62.62 0 0 1-1 .15.57.57 0 0 0 .14.03zM10255.65 5680.61a1.09 1.09 0 0 0-1.35-1.12c-2.21.5-3 4.42-3 4.42 2.52-4.58 4.35-3.3 4.35-3.3zM10256.48 5684.09c1.2-1.95-.26-3.18-2.14-2.14a5.6 5.6 0 0 0-2.32 3.56c3.71-4.04 4.46-1.42 4.46-1.42zM10251.68 5680.46c1.35-2.17 2.88-2.14 2.88-2.14-1.83-1.32-2.88 2.14-2.88 2.14zM10274.16 5681.58a4.32 4.32 0 0 1-1.2-3.41c.15-2.21.56-5.54-3.18-7.87a6.84 6.84 0 0 1 1 4.68c-.56 2.32-2.44 6.29-2.29 7.61.34 2.88 3.33 3.41 3.11 7.34a6.75 6.75 0 0 0 1.42-4.65c-.34-2.51-2.55-3.6-1.57-5.58a4.67 4.67 0 0 0 2.71 1.88z" transform="translate(-10239.72 -5655.16)"/><path d="M10284.94 5671.13s3.28 8.9-.42 17a7.26 7.26 0 0 0-.7-3.5c-1-2.49-.65-5.69-.25-6.29a6.83 6.83 0 0 0-1.7 4.8c.1 3 .9 11.44-5.19 14.58a15.49 15.49 0 0 0 1.45-9.17 2.36 2.36 0 0 1 1.2 1.35 14.28 14.28 0 0 0-.49-9.67 4.88 4.88 0 0 1 1.95.86s.79-3.81-3.52-6.48c-1.09-.67-.94-1-.94-1a1.8 1.8 0 0 0 .37 1.72c.71.86 1.69 2.55 1.54 3.41a4.27 4.27 0 0 0-2.85-.6s3.22 2.73 2.73 8.62a5.37 5.37 0 0 0-2.92-1.27s2.36 4.42.26 8.65a5.91 5.91 0 0 0-.82-2.44 5.75 5.75 0 0 1-4.27 4.2s3-3.78-.56-5.69-6.63 2.32-7.23 6c0 0-4.16.3-4.57-1.39a2.12 2.12 0 0 1 .79-2.4s.64.41 2.1-.26 4.53-2.51 4.23-4.83-3.93-4.61-6.82-3.67-4.53 3.48-6 3.45-3.33-2.32-3.07-3.52 1.24-1.54 1.57-3.56a1.6 1.6 0 0 1-.87-.18 3.05 3.05 0 0 0-1.77-.47 18.44 18.44 0 0 1-1.77.8 5.47 5.47 0 0 1 .12-1s-1.35 1.42-1.15 2a8 8 0 0 0 2.6 2.8 6.48 6.48 0 0 0 1.82 3.37 2.74 2.74 0 0 0 2.6 1 5.18 5.18 0 0 0 3.16 2.22 14.69 14.69 0 0 1-.08-3.53.7.7 0 0 0 .19-.13c.27-.28 3.47-3.22 5.84-.37a2.76 2.76 0 0 0-1.5 1.75c-.42 1.35-.67 4.7-4.2 2.55a4.11 4.11 0 0 0 .77 3.07 3.46 3.46 0 0 0 2.17 3.17c2.32 1.12 3.95.27 5.44 1a9.55 9.55 0 0 1 1.12-4.95c1.27-1.87 3.07-2.5 3.95-1.77s1.42 3.47-1.95 6.32c0 0 3.87.5 6.52-1.52a12.75 12.75 0 0 1-3 6.59 21.48 21.48 0 0 0 14.12-31.62zm-36.39 12c-.57 0-1.6-1.52-1.77-1.82s1-.85 1.32-.95a.69.69 0 0 1 .77.15 5.08 5.08 0 0 1-.82.8 2.61 2.61 0 0 0 .72 1c.23.2.36.79-.21.79zm4.69 4.8a4.63 4.63 0 0 0 .45-.3 3 3 0 0 1 .82-.47 8.59 8.59 0 0 0 .09 2.22 4.33 4.33 0 0 1-1.35-1.48zm7.62 1.27a2.66 2.66 0 0 0 1.22-.15 9.13 9.13 0 0 0-.37-1.57s1.47.15 1.5.62-.82 1.67-2.62 2.45a4.71 4.71 0 0 0 .28-1.38zm-3.74 3.95a2.89 2.89 0 0 1-.64-1.35 3 3 0 0 0 1.48.41c-.45.42-.49 1.02-.83.91z" transform="translate(-10239.72 -5655.16)"/><path d="M10269.39 5672s-2.52-1.42-3.65.05-.37 3.76-1 5.25l-.06-.05c-1.4-1.25-3.12.87-3.45 1.5a1.21 1.21 0 0 1-.75.7c-3.07.62-2.42-1.85-3.45-2.6s-2.75.35-2.75.35c1.72-.32 2.12.87 2.07 1.35a6.05 6.05 0 0 0 .77 2.65c.47.77 2.4.22 4 .35s2.47 2 2.47 2c.95-2.3-1.6-3.35-1.6-3.35s.74-1.41 1.62-.92c2.8 1.55 2.1 7.82 2.1 7.82 2.41-4.53 1.35-7.19.09-8.75.2-1.41.88-5.86 3.59-6.35z" transform="translate(-10239.72 -5655.16)"/></svg>