<svg xmlns="http://www.w3.org/2000/svg" viewBox="0 0 180.25 40"><defs><style>.cls-1{isolation:isolate}.cls-2{fill:#3e8b97}.cls-3,.cls-5{fill:#3c8b98}.cls-4{fill:#45b0c8}.cls-5{opacity:.6;mix-blend-mode:multiply}.cls-6{fill:#76c0cd}</style></defs><title>logo</title><g class="cls-1"><g id="Шар_1" data-name="Шар 1"><path class="cls-2" d="M89.08 19.62h-2.17l-3.14 3.76q-.77.89-1.55 1.86v-5.62h-1.9v11.77h1.9V27l1.12-.93L87 31.39h2.2l-4.49-6.61q1.29-1.53 4.37-5.16zm4.47 0L89.2 31.39h2l1.14-3.27h4.45L98 31.39h2l-4.38-11.81h-2.07zm-.65 6.84l1.05-3.07a18.21 18.21 0 0 0 .63-2.16q.08.32.29 1t.33 1l1.09 3.2H92.9zm17.38-6.84h-2.17L105 23.38q-.77.89-1.55 1.86v-5.62h-1.9v11.77h1.9V27l1.12-.93 3.65 5.33h2.2l-4.49-6.61q1.29-1.54 4.34-5.17zm1.66 11.77h1.9V19.62h-1.9v11.77zm3.67-10.12H119v10.12h1.9V21.27h3.42v-1.65h-8.72v1.65zm13.35-1.7l-4.35 11.81h2l1.14-3.27h4.45l1.16 3.27h2L131 19.58h-2.07zm-.65 6.89l1.05-3.07a18.24 18.24 0 0 0 .63-2.16q.08.32.29 1t.33 1l1.09 3.2h-3.39zm16.56-.68v1.81q0 1.16.13 1.41l-5.71-9.33h-2.39v11.72h1.73v-6.12q0-1.24-.11-2.74v-.52h.06l5.72 9.38h2.33V19.62h-1.74v6.16zm9.58.87h2.41v3a9.12 9.12 0 0 1-2 .23 3.52 3.52 0 0 1-2.81-1.12 4.87 4.87 0 0 1-1-3.28 4.61 4.61 0 0 1 1.08-3.23 3.79 3.79 0 0 1 2.94-1.18 6.66 6.66 0 0 1 2.83.66l.67-1.6a8.59 8.59 0 0 0-3.45-.71 6 6 0 0 0-4.45 1.61 6 6 0 0 0-1.62 4.45 6.41 6.41 0 0 0 1.48 4.52 5.22 5.22 0 0 0 4.08 1.58 14.13 14.13 0 0 0 2.09-.14 12.29 12.29 0 0 0 2-.49V25h-4.28v1.65zm9.89-7.08L160 31.39h2l1.14-3.27h4.45l1.16 3.27h2l-4.35-11.81h-2.07zm-.65 6.89l1.05-3.07a18.21 18.21 0 0 0 .63-2.16q.08.32.29 1t.33 1l1.09 3.2h-3.39zm16.56-.68v1.81q0 1.16.1 1.41l-5.71-9.33h-2.31v11.72H174v-6.12q0-1.24-.11-2.74v-.52h.06l5.72 9.38H182V19.62h-1.74v6.16zm5.52 3.38a1.16 1.16 0 0 0-.88.31 1.25 1.25 0 0 0-.3.9 1.29 1.29 0 0 0 .3.91 1.33 1.33 0 0 0 1.76 0 1.29 1.29 0 0 0 .31-.91 1.26 1.26 0 0 0-.3-.89 1.15 1.15 0 0 0-.91-.31zm7.23-5.25a5.61 5.61 0 0 1 2 .47l.57-1.52a5.83 5.83 0 0 0-2.51-.52 4 4 0 0 0-3.14 1.21 5 5 0 0 0-1.11 3.45 5 5 0 0 0 1 3.38 3.83 3.83 0 0 0 3 1.18 6.36 6.36 0 0 0 1.38-.13 3.67 3.67 0 0 0 1.07-.43v-1.65A4.74 4.74 0 0 1 193 30a2 2 0 0 1-1.67-.75 3.7 3.7 0 0 1-.57-2.25q-.03-3.09 2.24-3.09zm8.05-1.58a4 4 0 0 0-3.1 1.22 4.86 4.86 0 0 0-1.1 3.38 5.56 5.56 0 0 0 .51 2.45 3.7 3.7 0 0 0 1.48 1.62 4.19 4.19 0 0 0 2.18.56 3.94 3.94 0 0 0 3.08-1.22 4.89 4.89 0 0 0 1.11-3.4 4.84 4.84 0 0 0-1.11-3.35 3.86 3.86 0 0 0-3.03-1.26zm0 7.68q-2.25 0-2.25-3.08a4 4 0 0 1 .53-2.26 1.91 1.91 0 0 1 1.71-.79q2.24 0 2.24 3T201.06 30zm18.56-6.87a2.94 2.94 0 0 0-2.3-.8 3.45 3.45 0 0 0-1.62.37 2.69 2.69 0 0 0-1.1 1h-.13a2.67 2.67 0 0 0-2.69-1.4 3.4 3.4 0 0 0-1.53.35 2.45 2.45 0 0 0-1.06 1h-.1l-.26-1.17h-1.46v8.9h1.87V27a4.22 4.22 0 0 1 .51-2.37 1.81 1.81 0 0 1 1.59-.71 1.4 1.4 0 0 1 1.19.5 2.51 2.51 0 0 1 .38 1.52v5.49h1.88v-4.76a3.58 3.58 0 0 1 .51-2.11 1.85 1.85 0 0 1 1.6-.69 1.41 1.41 0 0 1 1.2.5 2.49 2.49 0 0 1 .39 1.52v5.49h1.87v-5.8a3.59 3.59 0 0 0-.74-2.45z" transform="translate(-40.08 -4.76)"/><path class="cls-3" d="M1.98 0h10.51v40H1.98z"/><path class="cls-4" d="M.7 40L.09 25.74 22.45 3.38l7.44 7.43L.7 40z"/><path class="cls-5" d="M1.98 38.71l10.51-10.52-.03 1.85-10.48 9.1v-.43z"/><path class="cls-6" d="M.68 0L0 14.26 25.42 40h14.81L.68 0z"/><path class="cls-5" d="M1.97 16.27L13.1 27.54l-.61.65L1.97 16.74v-.47z"/></g></g></svg>